HIERARCHY
ROOT Hips
{
	OFFSET 0.000000 88.474243 0.000000
	CHANNELS 6 Xposition Yposition Zposition Zrotation Yrotation Xrotation 
	JOINT Hips_Spine
	{
		OFFSET 0.000000 0.000000 0.000000
		CHANNELS 3 Zrotation Yrotation Xrotation
		JOINT Spine
		{
			OFFSET 0.005100 8.711998 -0.691000
			CHANNELS 3 Zrotation Yrotation Xrotation
			JOINT Spine1
			{
				OFFSET -0.009200 8.660301 -1.275000
				CHANNELS 3 Zrotation Yrotation Xrotation
				JOINT Spine2
				{
					OFFSET 0.006300 9.852501 -1.857000
					CHANNELS 3 Zrotation Yrotation Xrotation
					JOINT Spine2_Neck
					{
						OFFSET 0.000000 0.000000 0.000000
						CHANNELS 3 Zrotation Yrotation Xrotation
						JOINT Neck
						{
							OFFSET 0.016300 11.420799 -0.263300
							CHANNELS 3 Zrotation Yrotation Xrotation
							End Site #name: Head
							{
								OFFSET -0.019200 9.262405 2.362500
							}
						}
					}
					JOINT Spine2_LeftShoulder
					{
						OFFSET 0.000000 0.000000 0.000000
						CHANNELS 3 Zrotation Yrotation Xrotation
						JOINT LeftShoulder
						{
							OFFSET 5.616900 6.732201 -0.345700
							CHANNELS 3 Zrotation Yrotation Xrotation
							JOINT LeftArm
							{
								OFFSET 10.664888 -0.183372 -2.440700
								CHANNELS 3 Zrotation Yrotation Xrotation
								JOINT LeftForeArm
								{
									OFFSET 27.459126 0.000000 0.000000
									CHANNELS 3 Zrotation Yrotation Xrotation
									End Site #name: LeftHand
									{
										OFFSET 21.306858 0.000000 0.000000
									}
								}
							}
						}
					}
					JOINT Spine2_RightShoulder
					{
						OFFSET 0.000000 0.000000 0.000000
						CHANNELS 3 Zrotation Yrotation Xrotation
						JOINT RightShoulder
						{
							OFFSET -5.580300 6.737503 -0.344400
							CHANNELS 3 Zrotation Yrotation Xrotation
							JOINT RightArm
							{
								OFFSET -10.679335 -0.188484 -2.383900
								CHANNELS 3 Zrotation Yrotation Xrotation
								JOINT RightForeArm
								{
									OFFSET -27.503529 0.000000 0.000000
									CHANNELS 3 Zrotation Yrotation Xrotation
									End Site #name: RightHand
									{
										OFFSET -21.306808 0.000000 0.000000
									}
								}
							}
						}
					}
				}
			}
		}
	}
	JOINT Hips_LeftUpLeg
	{
		OFFSET 0.000000 0.000000 0.000000
		CHANNELS 3 Zrotation Yrotation Xrotation
		JOINT LeftUpLeg
		{
			OFFSET 6.857700 -6.739601 0.312100
			CHANNELS 3 Zrotation Yrotation Xrotation
			JOINT LeftLeg
			{
				OFFSET -0.367590 -34.731552 -4.572400
				CHANNELS 3 Zrotation Yrotation Xrotation
				End Site #name: LeftFoot
				{
					OFFSET 0.367590 -34.656704 -6.067400
				}
			}
		}
	}
	JOINT Hips_RightUpLeg
	{
		OFFSET 0.000000 0.000000 0.000000
		CHANNELS 3 Zrotation Yrotation Xrotation
		JOINT RightUpLeg
		{
			OFFSET -6.876100 -6.733299 0.301000
			CHANNELS 3 Zrotation Yrotation Xrotation
			JOINT RightLeg
			{
				OFFSET 0.347353 -34.795158 -4.515900
				CHANNELS 3 Zrotation Yrotation Xrotation
				End Site #name: RightFoot
				{
					OFFSET -0.347353 -34.589367 -6.070300
				}
			}
		}
	}
}
MOTION
Frames: 12
Frame Time: 0.041667
-0.065977 0.080149 0.036074 -4.076978 -0.265481 -1.724245 -0.000000 0.000000 0.000000 -0.761554 0.848869 5.647122 -1.717580 1.312062 9.871646 0.000000 0.000000 0.000000 -1.981131 1.350998 9.264032 -1.149641 -3.578931 4.465059 -2.010790 1.187328 10.225837 -0.875590 -0.803747 0.317641 -68.770900 -24.566077 21.565086 170.878277 -85.445121 -171.151714 -1.885421 1.676115 10.720341 -4.710768 -0.531991 1.372763 77.468460 -5.735848 5.174707 176.221739 83.377188 178.106506 0.000000 -0.000000 0.000000 7.508253 1.205876 -19.801713 -1.230809 0.495352 34.294056 -0.000000 0.000000 -0.000000 -3.627859 -2.649145 -16.195642 -0.280599 -2.133967 27.263097 
0.062549 0.097933 0.134115 -5.164365 -4.330747 -1.460212 -0.000000 0.000000 0.000000 -0.760415 0.450998 5.219017 -2.094065 1.411129 10.213934 0.000000 0.000000 0.000000 -1.837207 1.372422 10.276474 -1.997239 -4.050356 5.620277 -2.027457 1.490775 10.786529 0.835210 0.867604 -0.173839 -68.662935 -22.885808 31.359904 178.757338 -83.483818 -178.813697 -1.933905 1.197100 10.296777 -5.525970 -2.355172 0.659958 82.647442 -7.757186 6.693260 -168.150976 86.481637 -168.362520 0.000000 -0.000000 0.000000 7.474513 0.311710 -23.176622 -0.706482 0.858199 32.986470 -0.000000 0.000000 -0.000000 -2.593228 -3.623998 -16.733509 0.979806 -0.477871 26.641239 
0.204863 0.085590 0.132069 -4.572713 -6.347851 -2.471327 0.000000 -0.000000 -0.000000 -0.722873 0.442077 5.024259 -2.124649 1.371195 10.149111 0.000000 0.000000 0.000000 -2.128815 1.550635 11.024184 -1.851944 -3.616948 4.880740 -1.824479 1.559889 10.483034 1.175985 0.406960 -0.167651 -70.200217 -17.590958 31.989649 -177.506913 -82.043542 177.418934 -1.992361 1.354944 10.309961 -4.061148 -2.176979 0.746104 81.636606 -7.591014 9.104390 -167.020050 86.587471 -167.422905 0.000000 -0.000000 0.000000 7.565609 0.899834 -23.114107 -0.831367 0.494052 34.067695 0.000000 0.000000 -0.000000 -2.391572 -3.518193 -16.734936 0.589835 -0.944768 25.693626 
0.304601 0.050735 0.116626 -4.146042 -6.952064 -2.955599 0.000000 -0.000000 -0.000000 -0.615498 0.525915 4.835686 -2.041265 1.520766 10.170664 0.000000 0.000000 0.000000 -1.962099 1.619042 10.524365 -1.746708 -3.838215 5.282824 -1.877515 1.620285 10.249396 1.954954 0.062554 0.036063 -70.841061 -17.362105 32.185432 -176.973425 -82.839295 176.865842 -2.009004 1.510880 10.212902 -3.930368 -1.566445 1.092313 80.394198 -7.354261 8.986872 -170.257380 85.118041 -170.828119 0.000000 -0.000000 0.000000 7.405632 1.182229 -23.328654 -1.166407 0.381116 34.767202 0.000000 0.000000 0.000000 -2.035824 -3.261244 -17.040840 0.449942 -0.776559 26.206844 
0.381611 0.047359 0.176516 -4.316628 -6.400267 -2.851544 -0.000000 -0.000000 0.000000 -0.539487 0.694899 4.890135 -1.976268 1.561364 10.065870 0.000000 0.000000 0.000000 -1.887518 1.616134 10.069867 -1.551993 -3.966184 5.259101 -1.934751 1.610552 10.011841 2.141404 0.075859 0.194432 -70.994544 -18.320113 31.656532 -175.219822 -83.982826 175.460732 -2.022407 1.567906 10.154395 -4.105230 -2.214819 1.218961 79.909465 -8.545553 7.785775 -168.967588 84.975480 -169.571237 0.000000 -0.000000 0.000000 7.028403 1.125808 -23.069970 -1.212915 0.496789 34.721443 -0.000000 0.000000 0.000000 -2.088080 -3.248366 -17.205074 0.520231 -0.650491 26.424368 
0.474363 0.065913 0.270371 -4.535125 -5.619252 -2.737372 -0.000000 -0.000000 0.000000 -0.530179 0.806554 4.931757 -1.904015 1.530222 9.914243 0.000000 0.000000 0.000000 -1.860490 1.543368 9.888023 -1.355869 -3.841530 5.111458 -1.936995 1.551738 9.779651 1.999302 0.197346 0.200871 -71.262884 -18.933834 30.920287 -175.382589 -84.376135 175.588011 -1.995559 1.553355 10.085210 -4.365366 -2.572278 1.193987 80.035551 -9.084169 7.411094 -169.409525 84.810543 -169.944027 0.000000 0.000000 0.000000 6.812281 1.150387 -22.707553 -1.231669 0.617337 34.380813 -0.000000 -0.000000 0.000000 -2.455468 -3.304913 -16.866718 0.479981 -0.735423 26.102468 
0.585091 0.090962 0.358549 -4.706204 -5.305543 -2.557057 -0.000000 -0.000000 0.000000 -0.555263 0.827142 4.940969 -1.895718 1.525697 9.897885 0.000000 0.000000 0.000000 -1.889327 1.482302 9.885983 -1.119872 -3.684435 5.081017 -1.916941 1.501262 9.635620 1.809466 0.228039 0.167939 -71.093605 -19.429171 29.918599 -176.810511 -83.474280 176.980781 -1.927887 1.510694 9.992273 -4.535901 -2.424545 1.127506 80.373623 -9.217890 7.308698 -171.053027 84.696126 -171.407490 0.000000 0.000000 0.000000 6.697467 1.155068 -22.198687 -1.223050 0.620064 33.945498 -0.000000 -0.000000 0.000000 -2.985870 -3.287426 -16.442438 0.431484 -0.872003 25.570519 
0.709809 0.118358 0.433657 -4.794473 -5.604575 -2.316749 -0.000000 -0.000000 0.000000 -0.569727 0.817221 4.997633 -1.886284 1.523802 9.922334 0.000000 0.000000 0.000000 -1.901102 1.460713 9.926026 -0.834606 -3.538341 5.055130 -1.882021 1.489571 9.604971 1.744570 0.154934 0.176197 -70.994387 -19.876669 29.083098 -177.948857 -83.026411 178.052064 -1.848632 1.485980 9.917849 -4.566760 -2.177736 1.106413 80.536139 -9.096128 7.299700 -172.329256 84.604302 -172.553486 0.000000 0.000000 0.000000 6.568156 1.219252 -22.037495 -1.171919 0.576158 33.826065 -0.000000 -0.000000 -0.000000 -3.407770 -3.203405 -16.246546 0.399644 -0.950112 25.243623 
0.840794 0.145763 0.495799 -4.838010 -5.919360 -2.087136 -0.000000 0.000000 0.000000 -0.565105 0.787971 5.104476 -1.853938 1.528098 9.963685 0.000000 0.000000 0.000000 -1.872785 1.467116 9.958879 -0.518837 -3.318980 4.962635 -1.839853 1.501166 9.662356 1.782514 0.192054 0.217486 -71.301055 -19.782128 28.893699 -178.344198 -83.218093 178.400943 -1.756075 1.468139 9.893156 -4.405070 -1.974876 1.112614 80.324635 -8.757785 7.367738 -173.437890 84.591265 -173.573759 0.000000 0.000000 0.000000 6.529007 1.229692 -22.058585 -1.132067 0.525611 33.897341 -0.000000 -0.000000 -0.000000 -3.548156 -3.020117 -16.288825 0.389701 -0.950948 25.124216 
0.973279 0.169213 0.544545 -4.818611 -6.162210 -1.947518 -0.000000 0.000000 0.000000 -0.544609 0.741527 5.143895 -1.797131 1.535637 9.957546 0.000000 0.000000 0.000000 -1.821501 1.485750 9.936859 -0.092700 -2.680731 4.643286 -1.783570 1.508114 9.706962 1.940364 0.253503 0.257003 -71.686879 -19.527889 29.134663 -178.486284 -83.582945 178.517843 -1.678915 1.460127 9.868655 -4.307663 -1.885158 1.150715 79.984272 -8.544690 7.390226 -174.108266 84.602207 -174.209524 0.000000 0.000000 0.000000 6.520655 1.205802 -22.086107 -1.108407 0.477097 33.944659 -0.000000 -0.000000 -0.000000 -3.512825 -2.812171 -16.433123 0.388752 -0.926798 25.054127 
1.106081 0.187405 0.581982 -4.717343 -6.356149 -1.924319 -0.000000 0.000000 0.000000 -0.511826 0.703585 5.101760 -1.719978 1.536402 9.920846 0.000000 0.000000 0.000000 -1.753537 1.503021 9.893495 0.296667 -2.043826 4.245555 -1.711947 1.498727 9.713651 2.226747 0.288403 0.299044 -72.215848 -19.176482 29.502123 -178.352581 -83.973857 178.342536 -1.620162 1.452876 9.830632 -4.282870 -1.927662 1.177037 79.764803 -8.454507 7.349632 -174.458665 84.658398 -174.556404 0.000000 0.000000 0.000000 6.500816 1.185313 -22.088519 -1.135419 0.405648 33.904400 -0.000000 -0.000000 -0.000000 -3.406089 -2.611946 -16.551290 0.369063 -0.903976 24.928678 
1.241433 0.201554 0.612710 -4.674727 -6.493622 -1.931925 -0.000000 0.000000 0.000000 -0.478153 0.671846 4.968843 -1.640739 1.531978 9.877190 0.000000 0.000000 0.000000 -1.677498 1.517656 9.851883 0.657181 -1.404383 3.887259 -1.650651 1.489777 9.716575 2.526267 0.388396 0.340747 -72.728635 -18.770115 29.873162 -178.097138 -84.144696 178.064521 -1.571622 1.445588 9.778037 -4.296916 -2.046302 1.159649 79.685063 -8.559356 7.294815 -174.853271 84.608559 -174.967854 0.000000 0.000000 0.000000 6.445773 1.172034 -22.038209 -1.134735 0.362369 33.759759 -0.000000 -0.000000 -0.000000 -3.284504 -2.442224 -16.596941 0.356159 -0.890377 24.745753 
